# AST/ASF file generated using VICON BodyLanguage
# -----------------------------------------------
:version 1.10
:name VICON
:units
  mass 1.0
  length 0.45
  angle deg
:documentation
   .ast/.asf automatically generated from VICON data using
   VICON BodyBuilder and BodyLanguage model FoxedUp or BRILLIANT.MOD
:root
   order TX TY TZ RX RY RZ
   axis XYZ
   position 0 0 0  
   orientation 0 0 0 
:bonedata
  begin
     id 1 
     name lhipjoint
     direction 0.54267 -0.795011 0.271047 
     length 2.39899 
     axis 0 0 0  XYZ
  end
  begin
     id 2 
     name lfemur
     direction 0.34202 -0.939693 0  
     length 7.49701  
     axis 0 0 20  XYZ
    dof rx ry rz
    limits (-160.0 20.0)
           (-70.0 70.0)
           (-60.0 70.0)
  end
  begin
     id 3 
     name ltibia
     direction 0.34202 -0.939693 0   
     length 8.1668   
     axis 0 0 20   XYZ
    dof rx
    limits (-10.0 170.0)
  end
  begin
     id 4 
     name lfoot
     direction 0.0736283 -0.202292 0.976554   
     length 2.13544   
     axis -90 7.62852e-016 20   XYZ
    dof rx rz
    limits (-45.0 90.0)
           (-70.0 20.0)
  end
  begin
     id 5 
     name ltoes
     direction 1.53557e-011 -4.22024e-011 1   
     length 1.07411   
     axis -90 7.62852e-016 20   XYZ
    dof rx
    limits (-90.0 20.0)
  end
  begin
     id 6 
     name rhipjoint
     direction -0.538061 -0.797813 0.272002   
     length 2.39057  
     axis 0 0 0  XYZ 
  end
  begin
     id 7 
     name rfemur
     direction -0.34202 -0.939693 0   
     length 7.50152   
     axis 0 0 -20   XYZ
    dof rx ry rz
    limits (-160.0 20.0)
           (-70.0 70.0)
           (-70.0 60.0)
  end
  begin
     id 8 
     name rtibia
     direction -0.34202 -0.939693 0   
     length 8.05793   
     axis 0 0 -20   XYZ
    dof rx
    limits (-10.0 170.0)
 end
 begin
     id 9 
     name rfoot
     direction -0.0765195 -0.210236 0.974652   
     length 2.28698  
     axis -90 -7.62852e-016 -20   XYZ
    dof rx rz
    limits (-45.0 90.0)
           (-20.0 70.0)
  end
  begin
     id 10 
     name rtoes
     direction -1.53542e-011 -4.21847e-011 1   
     length 1.14762   
     axis -90 -7.62852e-016 -20   XYZ
    dof rx
    limits (-90.0 20.0)
  end
  begin
     id 11 
     name lowerback
     direction -0.0217239 0.996592 -0.0795765   
     length 2.08176   
     axis 0 0 0   XYZ
    dof rx ry rz
    limits (-20.0 45.0)
           (-30.0 30.0)
           (-30.0 30.0)
  end
  begin
     id 12 
     name upperback
     direction -0.00563773 0.999651 -0.0258155   
     length 2.08898   
     axis 0 0 0   XYZ
    dof rx ry rz
    limits (-20.0 45.0)
           (-30.0 30.0)
           (-30.0 30.0)
  end
  begin
     id 13 
     name thorax
     direction 0.0032706 0.999923 0.0119599   
     length 2.0968   
     axis 0 0 0   XYZ
    dof rx ry rz
    limits (-20.0 45.0)
           (-30.0 30.0)
           (-30.0 30.0)
  end
  begin
     id 14 
     name lowerneck
     direction -0.0285886 0.99568 0.0883427   
     length 1.81272   
     axis 0 0 0   XYZ
    dof rx ry rz
    limits (-20.0 45.0)
           (-30.0 30.0)
           (-30.0 30.0)
  end
  begin
     id 15 
     name upperneck
     direction 0.0807535 0.97985 -0.18268   
     length 1.82518   
     axis 0 0 0   XYZ
    dof rx ry rz
    limits (-20.0 45.0)
           (-30.0 30.0)
           (-30.0 30.0)
  end
  begin
     id 16
     name head
     direction 0.0236605 0.997053 -0.0729767  
     length 1.84443  
     axis 0 0 0   XYZ
    dof rx ry rz
    limits (-20.0 45.0)
           (-30.0 30.0)
           (-30.0 30.0)
  end
  begin
     id 17 
     name lclavicle
     direction 0.918986 0.39378 -0.0200683  
     length 3.27822  
     axis 0 0 0   XYZ
    dof ry rz
    limits (-20.0 10.0)
           (0.0 20.0)
  end
  begin
     id 18 
     name lhumerus
     direction 1 -4.4897e-011 2.09544e-027   
     length 5.5568   
     axis 180 -30 -90   XYZ
    dof rx ry rz
    limits (-60.0 90.0)
           (-90.0 90.0)
           (-90.0 90.0)
  end
  begin
     id 19
     name lradius
     direction 1 -4.48957e-011 -1.27696e-026   
     length 3.63979   
     axis 180 -30 -90   XYZ
    dof rx
    limits (-10.0 170.0)
  end
  begin
     id 20
     name lwrist
     direction 1 -4.49001e-011 -1.49001e-026   
     length 1.8199   
     axis 9.0955e-015 90 90   XYZ
    dof ry
    limits (-180.0 0.0)
 end
  begin
     id 21 
     name lhand
     direction 1 -4.48709e-011 -2.9758e-026   
     length 0.569419   
     axis 1.90115e-014 90 90   XYZ
    dof rx rz
    limits (-90.0 90.0)
           (-45.0 45.0)
  end
  begin
     id 22 
     name lfingers
     direction 1 -4.49175e-011 -5.96505e-026   
     length 0.45908   
     axis 3.80223e-014 90 90   XYZ
    dof rx
    limits (0.0 90.0)
  end
  begin
     id 23
     name lthumb
     direction 0.707107 -6.34864e-011 0.707107   
     length 0.65915   
     axis -90 45 -3.84942e-014   XYZ
    dof rx rz
    limits (-45.0 45.0)
           (-45.0 45.0)
  end
  begin
     id 24 
     name rclavicle
     direction -0.911913 0.396426 -0.106115   
     length 3.46301  
     axis 0 0 0   XYZ 
    dof ry rz
    limits (-10.0 20.0)
           (-20.0 0.0)
  end
  begin
     id 25 
     name rhumerus
     direction -1 -4.48965e-011 7.78516e-028  
     length 5.34339   
     axis 180 30 90   XYZ
    dof rx ry rz
    limits (-90.0 60.0)
           (-90.0 90.0)
           (-90.0 90.0)
  end
  begin
     id 26 
     name rradius
     direction -1 -4.48948e-011 -5.79823e-027   
     length 3.65101   
     axis 180 30 90   XYZ
    dof rx
    limits (-10.0 170.0)
  end
  begin
     id 27 
     name rwrist
     direction -1 -4.48995e-011 -1.48996e-026   
     length 1.8255   
     axis 9.0955e-015 -90 -90   XYZ
    dof ry
    limits (-180.0 0.0)
  end
  begin
     id 28
     name rhand
     direction -1 -4.48957e-011 -2.97937e-026   
     length 0.694249   
     axis 1.90115e-014 -90 -90   XYZ
    dof rx rz
    limits (-90.0 90.0)
           (-45.0 45.0)
  end
  begin
     id 29
     name rfingers
     direction -1 -4.4898e-011 -5.95943e-026   
     length 0.559721   
     axis 3.80223e-014 -90 -90   XYZ
    dof rx
    limits (0.0 90.0)
  end
  begin
     id 30
     name rthumb
     direction -0.707107 -6.34969e-011 0.707107   
     length 0.803651   
     axis -90 -45 3.84942e-014   XYZ
    dof rx rz
    limits (-45.0 45.0)
           (-45.0 45.0)
  end
:hierarchy
  begin
    root lhipjoint rhipjoint lowerback
    lhipjoint lfemur
    lfemur ltibia
    ltibia lfoot
    lfoot ltoes
    rhipjoint rfemur
    rfemur rtibia
    rtibia rfoot
    rfoot rtoes
    lowerback upperback
    upperback thorax
    thorax lowerneck lclavicle rclavicle
    lowerneck upperneck
    upperneck head
    lclavicle lhumerus
    lhumerus lradius
    lradius lwrist
    lwrist lhand lthumb
    lhand lfingers
    rclavicle rhumerus
    rhumerus rradius
    rradius rwrist
    rwrist rhand rthumb
    rhand rfingers
  end

#!OML:ASF H:\Terrain\Walking\May29\JustinRory\rory.ASF
:FULLY-SPECIFIED
:DEGREES
49
root 8.81204 18.2458 -15.435 3.63348 41.6205 0.894977
lowerback -4.62747 -0.241119 -5.98354
upperback -0.912262 0.011381 -1.35045
thorax 1.65493 -0.0132366 1.96398
lowerneck -0.583484 -16.7311 -16.1617
upperneck 25.4361 -26.4357 16.0864
head 13.1 -12.2254 4.82403
rclavicle -8.86828e-014 1.19271e-014
rhumerus -12.1722 -25.6314 -64.6826
rradius 28.1181
rwrist 19.4314
rhand 4.83046 38.7089
rfingers 7.12502
rthumb 30.2082 11.1595
lclavicle -8.86828e-014 1.19271e-014
lhumerus 0 0 0
lradius 0
lwrist 0
lhand 0 0
lfingers 0
lthumb 0 0
rfemur -6.90832 14.869 14.238
rtibia 19.0497
rfoot -12.8617 -13.2914
rtoes 12.0523
lfemur -2.9437 -12.2793 -15.2303
ltibia 14.2805
lfoot -13.5404 2.03916
ltoes -16.4962
50
root 8.81195 18.242 -15.4361 3.54739 41.7081 0.671478
lowerback -4.66216 -0.214088 -5.80081
upperback -0.942609 0.0401625 -1.37106
thorax 1.641 0.00293808 1.84246
lowerneck -0.504179 -16.7938 -16.155
upperneck 25.4601 -26.5595 16.1382
head 13.1295 -12.2792 4.82207
rclavicle -6.70526e-014 2.38542e-015
rhumerus -12.2378 -25.5424 -64.33
rradius 27.7853
rwrist 19.0028
rhand 5.18959 38.1921
rfingers 7.12502
rthumb 30.5508 10.706
lclavicle -6.70526e-014 2.38542e-015
lhumerus 0 0 0
lradius 0
lwrist 0
lhand 0 0
lfingers 0
lthumb 0 0
rfemur -7.00898 14.6055 14.3853
rtibia 19.1149
rfoot -12.9986 -13.1066
rtoes 12.3407
lfemur -3.05585 -12.225 -15.0269
ltibia 14.2765
lfoot -13.4942 2.01437
ltoes -17.0823
51
root 8.8132 18.2432 -15.4305 3.63955 41.7901 0.705554
lowerback -4.79723 -0.299115 -5.91724
upperback -0.948762 -0.0568515 -1.36427
thorax 1.71758 -0.0476017 1.90844
lowerneck -0.505143 -16.7663 -16.1498
upperneck 25.4877 -26.5267 16.1423
head 13.1344 -12.2634 4.83107
rclavicle -7.10282e-014 1.74931e-014
rhumerus -12.2119 -24.3802 -64.1563
rradius 27.4477
rwrist 17.6233
rhand 5.04334 37.588
rfingers 7.12502
rthumb 30.4113 10.076
lclavicle -7.10282e-014 1.74931e-014
lhumerus 0 0 0
lradius 0
lwrist 0
lhand 0 0
lfingers 0
lthumb 0 0
rfemur -7.11148 14.2128 14.3336
rtibia 19.1883
rfoot -13.0982 -12.8126
rtoes 12.7346
lfemur -3.13099 -12.1743 -15.0229
ltibia 14.2545
lfoot -13.3768 1.94194
ltoes -17.7591
52
root 8.81538 18.2459 -15.4261 3.86409 41.8644 0.917115
lowerback -4.9561 -0.471704 -6.19663
upperback -0.934876 -0.258536 -1.35147
thorax 1.83752 -0.152671 2.06421
lowerneck -0.731697 -16.7408 -15.7526
upperneck 25.6163 -26.3595 15.63
head 13.0364 -12.1807 4.61028
rclavicle -2.34939e-014 -2.38542e-015
rhumerus -11.8701 -23.0762 -64.1761
rradius 26.9682
rwrist 16.2776
rhand 4.6665 37.7312
rfingers 7.12502
rthumb 30.0518 10.1533
lclavicle -2.34939e-014 -2.38542e-015
lhumerus 0 0 0
lradius 0
lwrist 0
lhand 0 0
lfingers 0
lthumb 0 0
rfemur -7.22133 14.1552 14.1449
rtibia 19.2759
rfoot -13.1973 -12.8031
rtoes 13.5558
lfemur -3.20552 -12.1397 -15.1614
ltibia 14.2327
lfoot -13.2416 1.79685
ltoes -18.3244
53
root 8.81503 18.247 -15.4259 3.75873 41.9909 0.816143
lowerback -4.89694 -0.563173 -6.18213
upperback -0.860694 -0.383779 -1.31188
thorax 1.8915 -0.218307 2.08873
lowerneck -1.14941 -16.8005 -15.3631
upperneck 25.7595 -26.3224 15.1689
head 13.0219 -12.1381 4.362
rclavicle 3.90985e-014 7.95139e-016
rhumerus -11.429 -22.412 -64.1377
rradius 26.401
rwrist 15.7624
rhand 4.04052 38.4103
rfingers 7.12502
rthumb 29.4544 10.7256
lclavicle 3.90985e-014 7.95139e-016
lhumerus 0 0 0
lradius 0
lwrist 0
lhand 0 0
lfingers 0
lthumb 0 0
rfemur -7.18277 14.2711 14.2688
rtibia 19.3481
rfoot -13.2835 -13.0969
rtoes 13.6584
lfemur -3.2079 -12.1475 -15.0509
ltibia 14.2352
lfoot -13.2109 1.64357
ltoes -18.3529
54
root 8.81212 18.2456 -15.4324 3.77776 41.7478 0.742163
lowerback -4.84863 -0.525584 -6.11595
upperback -0.826508 -0.340049 -1.30886
thorax 1.89586 -0.19715 2.05789
lowerneck -1.57174 -16.7834 -15.4027
upperneck 25.8295 -26.2904 15.2314
head 13.1471 -12.0908 4.35609
rclavicle -1.02902e-013 -1.51076e-014
rhumerus -10.9998 -22.1338 -64.1135
rradius 25.9045
rwrist 16.3661
rhand 3.22172 39.1665
rfingers 7.12502
rthumb 28.6724 11.3469
lclavicle -1.02902e-013 -1.51076e-014
lhumerus 0 0 0
lradius 0
lwrist 0
lhand 0 0
lfingers 0
lthumb 0 0
rfemur -7.3969 13.9361 14.2424
rtibia 19.3818
rfoot -13.0844 -12.7246
rtoes 12.5434
lfemur -3.31068 -12.1565 -15.0077
ltibia 14.279
lfoot -13.2591 1.84041
ltoes -17.9528
55
root 8.80995 18.2418 -15.4373 3.78303 41.5431 0.791302
lowerback -4.74724 -0.529622 -6.17291
upperback -0.781366 -0.348328 -1.32429
thorax 1.88666 -0.202329 2.07359
lowerneck -1.60554 -16.6729 -15.5108
upperneck 25.6735 -26.1646 15.485
head 13.1276 -12.0278 4.48686
rclavicle -6.05361e-014 2.14687e-014
rhumerus -10.6718 -22.0155 -64.1299
rradius 25.5933
rwrist 17.6315
rhand 2.2566 39.5469
rfingers 7.12502
rthumb 27.75 11.575
lclavicle -6.05361e-014 2.14687e-014
lhumerus 0 0 0
lradius 0
lwrist 0
lhand 0 0
lfingers 0
lthumb 0 0
rfemur -7.47278 13.6542 14.1483
rtibia 19.4169
rfoot -12.9561 -12.2119
rtoes 11.9851
lfemur -3.27645 -12.1236 -15.0811
ltibia 14.3181
lfoot -13.2716 1.92361
ltoes -18.0517
56
root 8.81307 18.2408 -15.4349 3.78398 41.8664 0.724371
lowerback -4.82947 -0.68689 -6.17111
upperback -0.749126 -0.550606 -1.28464
thorax 1.98295 -0.306456 2.09949
lowerneck -1.19151 -16.5532 -15.6598
upperneck 25.232 -26.0311 15.8161
head 12.9177 -12.001 4.69239
rclavicle 5.83681e-014 5.56597e-015
rhumerus -10.4941 -22.1242 -63.9902
rradius 25.4163
rwrist 18.716
rhand 1.84472 39.5509
rfingers 7.12502
rthumb 27.3561 11.5162
lclavicle 5.83681e-014 5.56597e-015
lhumerus 0 0 0
lradius 0
lwrist 0
lhand 0 0
lfingers 0
lthumb 0 0
rfemur -7.43539 13.5902 14.2471
rtibia 19.4432
rfoot -13.1426 -12.328
rtoes 12.893
lfemur -3.41734 -12.1694 -14.9524
ltibia 14.4046
lfoot -13.1819 1.59145
ltoes -18.5535
57
root 8.81039 18.2372 -15.4329 3.74155 41.6546 0.723793
lowerback -4.8682 -0.620553 -6.27832
upperback -0.734657 -0.45278 -1.28966
thorax 2.01238 -0.259514 2.16031
lowerneck -0.788237 -16.5047 -15.6753
upperneck 24.83 -25.975 15.9974
head 12.6947 -12.0074 4.80709
rclavicle -7.61097e-014 -1.98785e-014
rhumerus -10.4845 -21.9978 -63.748
rradius 25.3198
rwrist 19.2176
rhand 1.73443 39.1562
rfingers 7.12502
rthumb 27.2506 11.1049
lclavicle -7.61097e-014 -1.98785e-014
lhumerus 0 0 0
lradius 0
lwrist 0
lhand 0 0
lfingers 0
lthumb 0 0
rfemur -7.40985 13.7472 14.2652
rtibia 19.398
rfoot -13.0863 -12.51
rtoes 12.5086
lfemur -3.38034 -12.0982 -14.9769
ltibia 14.5249
lfoot -13.2664 1.61838
ltoes -18.0569
58
root 8.80886 18.239 -15.4502 3.83708 41.1713 0.75393
lowerback -4.88004 -0.444588 -6.2102
upperback -0.770178 -0.221178 -1.35877
thorax 1.9623 -0.141296 2.06642
lowerneck -0.648914 -16.5052 -15.6041
upperneck 24.5881 -25.9606 16.0383
head 12.5605 -12.0121 4.82649
rclavicle -2.41896e-014 1.59028e-014
rhumerus -10.4046 -22.2026 -63.5897
rradius 25.1631
rwrist 19.7859
rhand 0.902506 38.5996
rfingers 7.12502
rthumb 26.4545 10.426
lclavicle -2.41896e-014 1.59028e-014
lhumerus 0 0 0
lradius 0
lwrist 0
lhand 0 0
lfingers 0
lthumb 0 0
rfemur -7.65781 13.8021 14.1108
rtibia 19.3268
rfoot -12.7864 -12.3629
rtoes 11.1853
lfemur -3.53831 -12.1122 -15.0943
ltibia 14.7354
lfoot -13.4852 2.0794
ltoes -17.942
59
root 8.8053 18.2383 -15.4339 3.216 42.1665 0.434273
lowerback -4.54994 -0.755106 -6.22909
upperback -0.571965 -0.655197 -1.22428
thorax 2.01949 -0.36433 2.18867
lowerneck -1.88524 -16.5017 -15.5145
upperneck 25.2141 -25.7941 15.4766
head 12.9137 -11.8702 4.53473
rclavicle 6.1499e-015 -1.74931e-014
rhumerus -10.1243 -23.5016 -63.5198
rradius 24.8135
rwrist 20.877
rhand 0.258438 37.916
rfingers 7.12502
rthumb 25.8379 9.65105
lclavicle 6.1499e-015 -1.74931e-014
lhumerus 0 0 0
lradius 0
lwrist 0
lhand 0 0
lfingers 0
lthumb 0 0
rfemur -6.78279 14.5299 14.7909
rtibia 19.2368
rfoot -12.9685 -13.8773
rtoes 12.3652
lfemur -3.34487 -12.2974 -14.6928
ltibia 14.9235
lfoot -13.4607 1.24114
ltoes -18.5522
60
root 8.80238 18.2427 -15.4607 3.25682 41.2014 -0.047412
lowerback -4.70531 -0.43681 -5.66722
upperback -0.752842 -0.257107 -1.20374
thorax 1.8835 -0.155417 1.92148
lowerneck -2.23581 -16.4699 -15.6863
upperneck 25.4546 -25.7259 15.4171
head 13.0875 -11.8273 4.51859
rclavicle -1.2926e-013 3.18055e-015
rhumerus -9.92865 -24.56 -63.4714
rradius 24.4996
rwrist 21.0894
rhand 0.611325 37.4879
rfingers 7.12502
rthumb 26.1758 9.27259
lclavicle -1.2926e-013 3.18055e-015
lhumerus 0 0 0
lradius 0
lwrist 0
lhand 0 0
lfingers 0
lthumb 0 0
rfemur -7.54432 13.9795 14.8312
rtibia 19.156
rfoot -12.4006 -12.4806
rtoes 11.7825
lfemur -3.74351 -11.9836 -14.3824
ltibia 15.1088
lfoot -13.6241 1.86564
ltoes -18.919
61
root 8.80409 18.2376 -15.4504 2.75732 41.9935 -0.138286
lowerback -4.36195 -0.745733 -5.74195
upperback -0.510934 -0.681321 -1.16803
thorax 1.97417 -0.374632 1.97452
lowerneck -2.228 -16.4301 -15.8777
upperneck 25.3333 -25.697 15.6341
head 13.0993 -11.8185 4.62836
rclavicle 2.19688e-014 1.03368e-014
rhumerus -9.52684 -24.9862 -63.5981
rradius 24.203
rwrist 20.5302
rhand 1.06625 37.5041
rfingers 7.12502
rthumb 26.6113 9.35412
lclavicle 2.19688e-014 1.03368e-014
lhumerus 0 0 0
lradius 0
lwrist 0
lhand 0 0
lfingers 0
lthumb 0 0
rfemur -6.7613 14.1366 15.2189
rtibia 19.1385
rfoot -12.5524 -13.5016
rtoes 11.2848
lfemur -3.4136 -12.2016 -14.2531
ltibia 15.2118
lfoot -13.62 1.16121
ltoes -18.9029
62
root 8.79864 18.2419 -15.4472 2.74979 41.9121 0.0115445
lowerback -4.29849 -0.869564 -6.03164
upperback -0.393288 -0.832803 -1.13613
thorax 2.0766 -0.457531 2.15943
lowerneck -2.20259 -16.3305 -15.806
upperneck 25.0279 -25.5022 15.6362
head 12.9152 -11.7432 4.66235
rclavicle -4.98095e-014 -7.15625e-015
rhumerus -8.90031 -24.7307 -63.8418
rradius 23.7176
rwrist 19.6198
rhand 0.715278 36.9958
rfingers 7.12502
rthumb 26.2753 8.79529
lclavicle -4.98095e-014 -7.15625e-015
lhumerus 0 0 0
lradius 0
lwrist 0
lhand 0 0
lfingers 0
lthumb 0 0
rfemur -6.67671 14.2513 15.152
rtibia 19.2131
rfoot -12.659 -13.4612
rtoes 11.5977
lfemur -3.27312 -12.056 -14.3642
ltibia 15.2299
lfoot -13.6834 0.988937
ltoes -18.1481
63
root 8.80001 18.246 -15.466 3.19039 41.5468 0.462743
lowerback -4.35063 -0.876263 -6.26924
upperback -0.465096 -0.826052 -1.22885
thorax 2.03318 -0.452576 2.19677
lowerneck -1.93272 -16.0554 -16.3898
upperneck 24.7359 -25.209 16.2689
head 12.8849 -11.6396 5.06009
rclavicle -2.06082e-013 -6.36111e-015
rhumerus -8.42184 -23.7047 -63.9381
rradius 23.1352
rwrist 17.9766
rhand -0.297064 36.2476
rfingers 7.12502
rthumb 25.3058 7.90632
lclavicle -2.06082e-013 -6.36111e-015
lhumerus 0 0 0
lradius 0
lwrist 0
lhand 0 0
lfingers 0
lthumb 0 0
rfemur -7.0568 13.7508 14.5931
rtibia 19.3073
rfoot -12.544 -12.7114
rtoes 11.1757
lfemur -3.40267 -11.9025 -14.7977
ltibia 15.2179
lfoot -13.6746 1.22736
ltoes -17.684
